Coordinates
version=1
nRows=8
nColumns=63
inDegrees=yes

Units are S.I. units (second, meters, Newtons, ...)
If the header above contains a line with 'inDegrees', this indicates whether rotational values are in degrees (yes) or radians (no).

endheader
time	pelvis_tilt	pelvis_list	pelvis_rotation	pelvis_tx	pelvis_ty	pelvis_tz	hip_flexion_r	hip_adduction_r	hip_rotation_r	knee_angle_r	knee_angle_r_beta	ankle_angle_r	subtalar_angle_r	mtp_angle_r	hip_flexion_l	hip_adduction_l	hip_rotation_l	knee_angle_l	knee_angle_l_beta	ankle_angle_l	subtalar_angle_l	mtp_angle_l	L5_S1_Flex_Ext	L5_S1_Lat_Bending	L5_S1_axial_rotation	L4_L5_Flex_Ext	L4_L5_Lat_Bending	L4_L5_axial_rotation	L3_L4_Flex_Ext	L3_L4_Lat_Bending	L3_L4_axial_rotation	L2_L3_Flex_Ext	L2_L3_Lat_Bending	L2_L3_axial_rotation	L1_L2_Flex_Ext	L1_L2_Lat_Bending	L1_L2_axial_rotation	L1_T12_Flex_Ext	L1_T12_Lat_Bending	L1_T12_axial_rotation	Abs_r3	Abs_r2	Abs_r1	Abs_t1	Abs_t2	neck_flexion	neck_bending	neck_rotation	arm_flex_r	arm_add_r	arm_rot_r	elbow_flex_r	pro_sup_r	wrist_flex_r	wrist_dev_r	arm_flex_l	arm_add_l	arm_rot_l	elbow_flex_l	pro_sup_l	wrist_flex_l	wrist_dev_l
      2.64406780	     -0.23926776	     -0.34146332	     80.58292546	      0.17860642	      0.75263126	      0.66592980	      7.81088074	     -2.87343047	      4.80478199	     19.00347646	      0.33167323	     22.94042845	     -4.75092586	      0.00000000	      4.61462348	     -0.55642829	    -14.54674455	     17.90624553	      0.31252294	     28.53958280	      7.33046706	      0.00000000	      0.02375641	      0.34768930	      0.31452971	      0.04411803	      0.46242677	      0.33418781	      0.03902941	      0.84537176	      0.33418781	      0.02715120	      0.84537176	      0.27521349	      0.02206021	      0.70900802	      0.25555539	      0.01357441	      0.53857073	      0.23589728	      0.16968968	      3.93313090	      1.74931987	      0.00000000	      0.00000000	     11.11128266	     -4.41772900	    -21.77476110	     16.65583765	    -12.64979753	     34.86151433	     41.22504213	     85.31694201	     -8.25428061	      3.81829479	      4.58760146	    -21.55526281	     47.64440657	     82.96208976	     87.58562522	     -2.06326014	      0.43355482
      2.66101695	      0.06014142	     -0.67181171	     80.63175785	      0.17762418	      0.75036853	      0.66738466	      8.49346590	     -2.50366489	      5.09533296	     19.48062558	      0.34000106	     23.65997952	     -5.09948276	      0.00000000	      5.29184547	     -0.89755454	    -13.79079921	     18.55934692	      0.32392171	     29.44903895	      7.03016454	      0.00000000	      0.03001043	      0.39483397	      0.27562015	      0.05573236	      0.52512918	      0.29284641	      0.04930413	      0.95999931	      0.29284641	      0.03429892	      0.95999931	      0.24116764	      0.02786768	      0.80514543	      0.22394138	      0.01714796	      0.61159782	      0.20671512	      0.21436148	      4.46644081	      1.53291661	      0.00000000	      0.00000000	     12.78382624	     -4.75967228	    -21.58086020	     16.38062281	    -12.24723340	     39.84639190	     42.61812911	     86.39336881	     -6.86164231	      1.80501078	      8.81461230	    -21.49198236	     52.67604731	     86.50876597	     87.91380772	      0.51462089	     -2.54232494
      2.67796610	      0.06453675	     -0.80722403	     80.67458870	      0.17752857	      0.74863658	      0.66910429	      9.03202193	     -2.37881239	      5.62814847	     19.98306601	      0.34877030	     24.37758657	     -5.75440496	      0.00000000	      5.79390268	     -0.89358095	    -12.81798027	     19.05558936	      0.33258278	     30.18723822	      6.34039826	      0.00000000	      0.02042133	      0.36528456	      0.23308222	      0.03792445	      0.48582846	      0.24764986	      0.03355020	      0.88815287	      0.24764986	      0.02333954	      0.88815287	      0.20394694	      0.01896325	      0.74488827	      0.18937930	      0.01166875	      0.56582578	      0.17481167	      0.14586752	      4.13217197	      1.29633339	      0.00000000	      0.00000000	     14.20897732	     -4.47465006	    -22.84253874	     16.50780541	    -11.62993807	     44.97453171	     44.60507456	     86.36887899	     -6.51031404	     -2.35627800	     12.12702870	    -20.73186503	     56.04036691	     89.51448304	     88.33457508	      2.19367698	     -7.40291099
      2.69491525	     -0.18930174	     -0.88677666	     80.65490738	      0.17780570	      0.74690821	      0.67120411	      9.67681940	     -2.53485804	      5.95916520	     20.74778319	      0.36211713	     25.18416516	     -6.04642265	      0.00000000	      6.34426158	     -0.73781172	    -12.55922583	     19.67797132	      0.34344539	     30.93308519	      6.39666793	      0.00000000	      0.01312619	      0.28748640	      0.20921093	      0.02437665	      0.38235692	      0.22228662	      0.02156502	      0.69899444	      0.22228662	      0.01500192	      0.69899444	      0.18305957	      0.01218898	      0.58624228	      0.16998388	      0.00750030	      0.44531644	      0.15690820	      0.09375905	      3.25210371	      1.16356845	      0.00000000	      0.00000000	     15.49351742	     -4.03113363	    -24.38831670	     16.74223819	    -11.01188667	     48.50769043	     47.90643361	     86.69331164	     -4.34942909	     -4.77014183	     14.14208383	    -19.22802361	     57.46390391	     92.91170302	     88.72001063	      2.92339994	     -7.88341786
      2.71186441	     -0.58095093	     -0.86421838	     80.72078209	      0.17810609	      0.74558297	      0.67301355	     10.16537708	     -2.87119754	      6.08430763	     21.48394975	      0.37496566	     25.78827143	     -6.31191387	      0.00000000	      6.71001657	     -0.44362936	    -12.62326132	     20.09397586	      0.35070604	     31.48370564	      6.79567843	      0.00000000	      0.01102620	      0.18240542	      0.20186970	      0.02047676	      0.24259921	      0.21448656	      0.01811495	      0.44350055	      0.21448656	      0.01260185	      0.44350055	      0.17663599	      0.01023893	      0.37196114	      0.16401913	      0.00630037	      0.28254600	      0.15140228	      0.07875906	      2.06340663	      1.12273872	      0.00000000	      0.00000000	     16.21710932	     -3.81086881	    -26.48936459	     17.16181413	    -10.52664219	     51.38212736	     51.90369594	     86.45526961	     -1.26142035	     -6.35972272	     15.26242921	    -17.01026105	     58.04609429	     95.82061234	     88.97427703	      3.38956303	     -5.15403530
      2.72881356	     -0.80074931	     -0.79186731	     80.78552538	      0.17776253	      0.74465282	      0.67469616	     10.51597261	     -3.10140540	      5.99719382	     22.16369082	      0.38682938	     26.00272812	     -6.52017483	      0.00000000	      7.00442949	     -0.28369895	    -12.74291706	     20.53475205	      0.35839903	     31.90374717	      7.06029070	      0.00000000	      0.00520588	      0.10881436	      0.19645286	      0.00966783	      0.14472310	      0.20873117	      0.00855273	      0.26457124	      0.20873117	      0.00594979	      0.26457124	      0.17189625	      0.00483418	      0.22189425	      0.15961795	      0.00297464	      0.16855345	      0.14733965	      0.03718505	      1.23092984	      1.09261188	      0.00000000	      0.00000000	     16.52195108	     -4.17216983	    -28.30951693	     18.07459957	    -10.37098877	     54.11046411	     56.47129261	     86.15655633	      2.37905952	     -6.21595202	     16.00239117	    -14.12105651	     58.76908162	     97.45243876	     89.11671693	      3.34638817	     -1.62182513
      2.74576271	     -1.14636557	     -0.62315351	     80.77617093	      0.17737092	      0.74409948	      0.67520323	     10.56969571	     -3.51215201	      5.92489843	     22.54601625	      0.39350222	     26.14131468	     -6.57155352	      0.00000000	      7.02017390	      0.03020910	    -13.17757649	     20.73257380	      0.36185168	     32.12046561	      7.54723770	      0.00000000	      0.01008717	      0.02244710	      0.22263290	      0.01873288	      0.02985464	      0.23654746	      0.01657221	      0.05457788	      0.23654746	      0.01152862	      0.05457788	      0.19480379	      0.00936694	      0.04577412	      0.18088923	      0.00576381	      0.03477056	      0.16697468	      0.07205164	      0.25392607	      1.23821741	      0.00000000	      0.00000000	     16.28560062	     -4.56537764	    -29.74833746	     18.11188497	     -9.71403822	     53.98705353	     61.03755595	     85.42620426	      9.24315437	     -3.43804605	     16.09561650	    -10.86523982	     58.72679628	     98.48539237	     89.13676303	      6.63088757	      6.44860037
      2.76271186	     -1.32022389	     -0.43583346	     80.52691399	      0.17658731	      0.74392201	      0.67509243	     10.50347288	     -3.77428199	      5.91923227	     22.78359084	      0.39764868	     25.93488010	     -6.65394399	      0.00000000	      6.88766932	      0.25153617	    -13.53238902	     20.83137787	      0.36357613	     32.17553076	      7.59581026	      0.00000000	      0.01371166	     -0.03166191	      0.27298034	      0.02546392	     -0.04211034	      0.29004162	      0.02252688	     -0.07698277	      0.29004162	      0.01567106	     -0.07698277	      0.23885780	      0.01273265	     -0.06456497	      0.22179653	      0.00783484	     -0.04904430	      0.20473526	      0.09794101	     -0.35816587	      1.51823478	      0.00000000	      0.00000000	     15.88897398	     -5.09799026	    -30.52181625	     18.07076494	     -9.02336308	     53.95289118	     65.31487727	     85.54000378	     14.80004746	     -0.39732244	     16.40315132	     -7.76525748	     59.83064292	     97.96536538	     89.04335260	      7.55661540	     11.40198063
